<svg id="svg" version="1.1" xmlns="http://www.w3.org/2000/svg" xmlns:xlink="http://www.w3.org/1999/xlink" width="400" height="59.34489402697495" viewBox="0, 0, 400,59.34489402697495"><g id="svgg"><path id="path0" d="M332.021 2.819 C 331.896 2.898,331.821 3.043,331.855 3.142 C 331.892 3.251,332.007 3.266,332.145 3.181 C 332.271 3.102,332.346 2.957,332.312 2.858 C 332.275 2.749,332.159 2.734,332.021 2.819 M331.867 22.224 C 331.834 40.905,331.836 41.032,332.167 41.118 C 332.382 41.175,332.500 41.346,332.500 41.603 C 332.500 41.912,332.589 42.000,332.905 42.000 C 333.198 42.000,333.325 42.104,333.363 42.375 L 333.417 42.750 344.251 42.793 L 355.086 42.836 355.039 44.210 C 354.971 46.193,354.879 46.616,354.496 46.716 C 354.237 46.784,354.167 46.945,354.167 47.473 C 354.167 48.041,354.110 48.152,353.792 48.197 C 353.551 48.231,353.398 48.384,353.363 48.625 C 353.329 48.866,353.195 49.000,352.988 49.000 C 352.763 49.000,352.667 49.116,352.667 49.388 C 352.667 49.684,352.577 49.773,352.292 49.763 C 352.023 49.754,351.917 49.845,351.917 50.083 C 351.917 50.298,351.788 50.435,351.557 50.468 C 351.339 50.499,351.158 50.678,351.096 50.926 C 351.030 51.187,350.875 51.333,350.663 51.333 C 350.451 51.333,350.333 51.445,350.333 51.647 C 350.333 51.825,350.183 52.000,349.988 52.052 C 349.797 52.101,349.603 52.291,349.556 52.472 C 349.508 52.654,349.326 52.840,349.151 52.886 C 348.976 52.931,348.833 53.108,348.833 53.278 C 348.833 53.448,348.665 53.662,348.459 53.752 C 348.229 53.853,348.052 54.110,348.000 54.417 C 347.948 54.724,347.771 54.980,347.541 55.081 C 347.051 55.297,346.952 58.715,347.430 58.899 C 347.998 59.117,383.301 59.011,383.390 58.792 C 383.457 58.625,383.476 58.625,383.487 58.792 C 383.505 59.075,384.419 59.057,384.709 58.767 C 384.843 58.633,384.958 58.124,384.981 57.563 C 385.003 57.028,384.974 56.638,384.917 56.695 C 384.860 56.752,384.809 57.108,384.803 57.486 C 384.796 58.009,384.745 58.134,384.591 58.006 C 384.438 57.879,384.394 57.959,384.416 58.328 C 384.432 58.598,384.383 58.781,384.306 58.733 C 384.229 58.686,384.167 58.539,384.167 58.407 C 384.167 58.275,384.096 58.167,384.010 58.167 C 383.923 58.167,383.881 58.317,383.917 58.500 C 383.952 58.683,383.910 58.833,383.824 58.833 C 383.737 58.833,383.661 58.777,383.654 58.708 C 383.647 58.640,383.616 58.454,383.586 58.297 C 383.556 58.139,383.580 58.027,383.641 58.047 C 383.701 58.067,383.769 58.008,383.792 57.917 C 383.815 57.825,383.758 57.750,383.667 57.750 C 383.575 57.750,383.481 57.675,383.459 57.583 C 383.405 57.370,382.154 56.014,381.094 55.021 C 380.641 54.597,380.053 54.025,379.786 53.750 C 376.322 50.176,373.555 47.507,373.384 47.573 C 373.126 47.672,372.773 47.065,372.898 46.739 C 372.947 46.610,372.934 46.511,372.869 46.520 C 372.585 46.558,372.012 46.282,372.095 46.148 C 372.145 46.066,372.104 46.000,372.003 46.000 C 371.901 46.000,371.841 46.131,371.868 46.292 C 371.913 46.564,371.523 46.586,365.833 46.621 C 361.611 46.647,359.839 46.607,360.042 46.488 C 360.283 46.346,360.333 46.073,360.333 44.908 C 360.333 43.797,360.384 43.500,360.572 43.500 C 360.703 43.500,360.858 43.350,360.917 43.167 C 361.019 42.844,361.182 42.832,366.136 42.804 C 369.531 42.785,370.596 42.743,369.305 42.679 C 367.354 42.583,366.395 42.338,367.931 42.328 C 368.687 42.323,368.725 42.304,368.426 42.078 C 368.249 41.943,367.969 41.833,367.806 41.833 C 367.642 41.833,367.402 41.627,367.271 41.375 C 367.141 41.123,366.576 40.468,366.017 39.919 C 365.458 39.371,365.000 38.817,365.000 38.689 C 365.000 38.561,364.839 38.316,364.641 38.145 C 364.284 37.834,364.285 37.833,365.131 37.833 C 366.464 37.833,366.293 37.560,364.887 37.441 C 364.188 37.382,357.665 37.333,350.392 37.333 L 337.167 37.333 337.162 23.292 C 337.158 13.567,337.104 9.341,336.985 9.545 C 336.890 9.708,336.734 9.792,336.638 9.732 C 336.542 9.673,336.397 9.727,336.317 9.854 C 336.202 10.035,336.171 10.022,336.169 9.792 C 336.168 9.631,336.092 9.500,336.000 9.500 C 335.908 9.500,335.833 9.383,335.833 9.240 C 335.833 9.097,335.771 9.019,335.695 9.066 C 335.619 9.113,335.160 8.742,334.674 8.242 C 334.188 7.742,333.688 7.333,333.562 7.333 C 333.436 7.333,333.333 7.192,333.333 7.019 C 333.333 6.846,333.184 6.667,333.000 6.618 C 332.807 6.568,332.667 6.391,332.667 6.198 C 332.667 5.949,332.584 5.886,332.341 5.950 C 332.041 6.028,332.010 5.930,331.958 4.726 C 331.926 4.006,331.885 11.880,331.867 22.224 M376.877 42.786 C 377.131 42.825,377.506 42.824,377.711 42.784 C 377.916 42.744,377.708 42.713,377.250 42.714 C 376.792 42.716,376.624 42.748,376.877 42.786 M376.922 44.716 C 376.851 44.880,376.839 45.061,376.896 45.118 C 377.065 45.288,377.202 45.050,377.124 44.721 C 377.055 44.430,377.046 44.430,376.922 44.716 M377.212 46.833 C 377.212 47.246,377.245 47.415,377.284 47.208 C 377.324 47.002,377.324 46.665,377.284 46.458 C 377.245 46.252,377.212 46.421,377.212 46.833 M378.433 49.128 C 378.534 49.195,378.660 49.362,378.712 49.500 C 378.775 49.667,378.811 49.626,378.820 49.375 C 378.829 49.123,378.738 49.001,378.542 49.003 C 378.362 49.004,378.320 49.052,378.433 49.128 M380.667 51.248 C 380.667 51.308,380.787 51.478,380.935 51.625 C 381.181 51.871,381.198 51.868,381.143 51.585 C 381.088 51.301,380.667 51.002,380.667 51.248 M374.167 52.254 C 374.167 52.393,374.354 52.593,374.583 52.697 C 374.813 52.801,375.000 53.020,375.000 53.182 C 375.000 53.361,375.147 53.498,375.375 53.530 C 375.581 53.559,375.750 53.696,375.750 53.833 C 375.750 53.971,375.825 54.138,375.917 54.206 C 376.008 54.273,371.490 54.329,365.875 54.331 L 355.667 54.333 355.667 53.917 C 355.667 53.583,355.750 53.500,356.083 53.500 C 356.389 53.500,356.500 53.411,356.500 53.167 C 356.500 52.944,356.611 52.833,356.833 52.833 C 357.078 52.833,357.167 52.722,357.167 52.417 L 357.167 52.000 365.667 52.000 C 373.164 52.000,374.167 52.030,374.167 52.254 M383.110 53.624 C 383.066 53.695,383.135 53.898,383.265 54.075 C 383.494 54.389,383.500 54.388,383.500 54.042 C 383.500 53.670,383.248 53.401,383.110 53.624 " stroke="none" fill="#b04fd3" fill-rule="evenodd"></path><path id="path1" d="M361.042 1.360 C 361.294 1.452,361.500 1.597,361.500 1.681 C 361.500 1.765,361.579 1.833,361.675 1.833 C 361.771 1.833,362.039 2.040,362.272 2.292 C 362.504 2.544,363.107 3.181,363.612 3.708 C 364.117 4.235,364.467 4.674,364.390 4.683 C 364.313 4.692,364.431 4.750,364.651 4.812 C 365.116 4.942,365.278 5.490,364.860 5.519 C 364.708 5.529,363.608 5.592,362.417 5.657 C 361.225 5.723,368.069 5.790,377.625 5.805 L 395.000 5.833 395.015 21.542 C 395.026 32.611,395.081 37.078,395.202 36.667 C 395.353 36.154,395.390 36.124,395.508 36.417 C 395.618 36.687,395.648 36.639,395.668 36.167 C 395.682 35.846,395.735 35.688,395.785 35.816 C 395.836 35.945,396.411 36.583,397.064 37.236 C 398.211 38.383,399.000 39.280,399.000 39.438 C 399.000 39.480,399.149 39.674,399.331 39.869 C 399.660 40.223,399.661 40.179,399.665 21.112 L 399.669 2.000 399.251 2.000 C 398.917 2.000,398.833 1.917,398.833 1.583 L 398.833 1.167 379.708 1.180 C 366.695 1.189,360.730 1.246,361.042 1.360 M393.792 42.790 C 394.456 42.822,395.544 42.822,396.208 42.790 C 396.873 42.759,396.329 42.733,395.000 42.733 C 393.671 42.733,393.127 42.759,393.792 42.790 " stroke="none" fill="#2ed1b2" fill-rule="evenodd"></path><path id="path2" d="M109.882 3.833 C 109.805 4.125,109.654 4.167,108.670 4.167 C 106.841 4.167,106.000 4.329,106.000 4.681 C 106.000 4.936,105.836 4.992,104.958 5.034 C 104.063 5.076,103.894 5.136,103.752 5.458 C 103.619 5.763,103.454 5.833,102.877 5.833 C 102.294 5.833,102.167 5.889,102.167 6.145 C 102.167 6.382,102.001 6.484,101.483 6.567 C 100.998 6.644,100.775 6.771,100.714 7.005 C 100.659 7.216,100.486 7.333,100.231 7.333 C 99.918 7.333,99.833 7.422,99.833 7.750 C 99.833 8.102,99.756 8.167,99.332 8.167 C 99.005 8.167,98.705 8.312,98.469 8.583 C 98.270 8.812,98.013 9.000,97.898 9.000 C 97.783 9.000,97.642 9.150,97.583 9.333 C 97.525 9.517,97.368 9.667,97.235 9.667 C 97.101 9.667,96.924 9.844,96.842 10.061 C 96.760 10.277,96.536 10.495,96.346 10.545 C 96.143 10.598,96.000 10.772,96.000 10.965 C 96.000 11.148,95.860 11.331,95.684 11.377 C 95.494 11.427,95.322 11.674,95.250 12.000 C 95.178 12.326,95.006 12.573,94.816 12.623 C 94.621 12.674,94.500 12.853,94.500 13.091 C 94.500 13.364,94.390 13.492,94.125 13.530 C 93.837 13.571,93.738 13.710,93.698 14.128 C 93.663 14.484,93.504 14.765,93.239 14.939 C 93.016 15.085,92.833 15.328,92.833 15.479 C 92.833 15.630,92.683 15.847,92.500 15.961 C 92.257 16.113,92.167 16.350,92.167 16.835 C 92.167 17.320,92.098 17.500,91.913 17.500 C 91.592 17.500,91.333 18.166,91.333 18.991 C 91.333 19.470,91.257 19.648,91.025 19.708 C 90.705 19.792,90.500 20.450,90.500 21.397 C 90.500 21.739,90.385 21.992,90.167 22.128 C 89.868 22.315,89.833 22.517,89.833 24.074 C 89.833 25.628,89.800 25.821,89.520 25.910 C 89.048 26.060,89.000 26.610,89.000 31.865 C 89.000 36.690,89.069 37.333,89.589 37.333 C 89.789 37.333,89.833 37.665,89.833 39.141 C 89.833 40.691,89.877 40.988,90.143 41.229 C 90.360 41.425,90.483 41.845,90.556 42.629 C 90.631 43.454,90.745 43.821,90.984 44.017 C 91.181 44.179,91.331 44.542,91.363 44.934 C 91.403 45.418,91.512 45.625,91.792 45.748 C 92.087 45.878,92.167 46.048,92.167 46.555 C 92.167 47.045,92.242 47.217,92.481 47.280 C 92.697 47.337,92.829 47.572,92.902 48.031 C 92.978 48.503,93.106 48.726,93.338 48.786 C 93.549 48.841,93.667 49.014,93.667 49.269 C 93.667 49.582,93.755 49.667,94.083 49.667 C 94.449 49.667,94.500 49.739,94.500 50.255 C 94.500 50.631,94.593 50.879,94.756 50.942 C 94.897 50.996,95.124 51.256,95.260 51.520 C 95.397 51.784,95.619 52.000,95.754 52.000 C 95.889 52.000,96.000 52.114,96.000 52.254 C 96.000 52.394,96.177 52.576,96.394 52.658 C 96.611 52.740,96.828 52.964,96.878 53.154 C 96.928 53.345,97.107 53.501,97.276 53.503 C 97.445 53.504,97.760 53.692,97.976 53.920 C 98.192 54.147,98.510 54.333,98.684 54.333 C 98.885 54.333,99.000 54.450,99.000 54.655 C 99.000 54.843,99.156 55.027,99.375 55.096 C 99.581 55.161,99.848 55.354,99.968 55.524 C 100.108 55.723,100.390 55.833,100.759 55.833 C 101.075 55.833,101.333 55.903,101.333 55.988 C 101.333 56.315,101.880 56.667,102.388 56.667 C 102.739 56.667,102.991 56.780,103.128 57.000 C 103.299 57.273,103.517 57.333,104.335 57.333 C 105.202 57.333,105.333 57.375,105.333 57.647 C 105.333 58.063,105.765 58.162,107.606 58.164 C 108.964 58.166,109.137 58.201,109.211 58.486 C 109.394 59.185,116.331 59.236,116.792 58.542 C 117.019 58.200,117.171 58.167,118.507 58.167 C 120.192 58.167,120.500 58.087,120.500 57.649 C 120.500 57.381,120.627 57.333,121.333 57.333 C 122.047 57.333,122.167 57.287,122.167 57.010 C 122.167 56.748,122.302 56.676,122.875 56.635 C 123.464 56.592,123.592 56.520,123.637 56.208 C 123.682 55.890,123.792 55.833,124.361 55.833 C 124.891 55.833,125.049 55.764,125.118 55.500 C 125.166 55.317,125.336 55.167,125.495 55.167 C 125.654 55.167,125.981 54.985,126.221 54.762 C 126.461 54.540,126.828 54.333,127.037 54.304 C 127.283 54.269,127.435 54.118,127.470 53.875 C 127.597 52.977,128.285 53.415,128.371 54.449 C 128.431 55.181,128.531 55.452,128.808 55.636 C 129.084 55.819,129.167 56.042,129.167 56.604 L 129.167 57.333 130.800 57.333 C 131.848 57.333,132.505 57.262,132.633 57.133 C 132.936 56.831,132.873 56.361,132.500 56.128 C 132.174 55.924,132.167 55.739,132.167 47.482 L 132.167 39.043 131.394 38.956 C 130.359 38.840,128.613 39.004,128.461 39.233 C 128.394 39.334,128.337 40.514,128.336 41.856 C 128.334 44.086,128.307 44.301,128.025 44.375 C 127.679 44.466,127.505 45.213,127.502 46.625 C 127.500 47.388,127.457 47.500,127.167 47.500 C 126.883 47.500,126.833 47.611,126.833 48.238 C 126.833 48.877,126.783 48.984,126.458 49.030 C 126.171 49.071,126.071 49.210,126.031 49.623 C 126.003 49.920,125.843 50.258,125.676 50.375 C 125.510 50.491,125.345 50.736,125.310 50.918 C 125.273 51.109,125.088 51.273,124.873 51.303 C 124.639 51.337,124.500 51.472,124.500 51.667 C 124.500 51.861,124.360 51.997,124.125 52.030 C 123.884 52.064,123.731 52.217,123.697 52.458 C 123.666 52.678,123.527 52.833,123.362 52.833 C 123.207 52.833,122.987 52.983,122.872 53.167 C 122.757 53.351,122.483 53.500,122.260 53.500 C 121.859 53.500,121.333 53.884,121.333 54.179 C 121.333 54.264,121.042 54.333,120.686 54.333 C 120.179 54.333,119.979 54.424,119.765 54.750 C 119.517 55.128,119.386 55.167,118.331 55.167 C 117.350 55.167,117.137 55.218,116.961 55.500 C 116.641 56.013,111.526 56.013,111.205 55.500 C 111.035 55.228,110.817 55.167,110.010 55.167 C 109.114 55.167,109.018 55.132,108.970 54.792 C 108.926 54.480,108.797 54.408,108.208 54.365 C 107.636 54.324,107.500 54.252,107.500 53.990 C 107.500 53.812,107.388 53.667,107.250 53.667 C 107.112 53.667,106.841 53.508,106.647 53.314 C 106.453 53.120,106.097 52.909,105.855 52.846 C 105.614 52.783,105.343 52.567,105.252 52.366 C 105.162 52.165,104.986 52.000,104.862 52.000 C 104.737 52.000,104.599 51.859,104.554 51.687 C 104.509 51.515,104.300 51.296,104.090 51.200 C 103.839 51.086,103.670 50.823,103.597 50.430 C 103.514 49.987,103.401 49.833,103.159 49.833 C 102.923 49.833,102.833 49.719,102.833 49.417 C 102.833 49.111,102.744 49.000,102.500 49.000 C 102.266 49.000,102.166 48.888,102.164 48.625 C 102.160 47.929,101.966 47.500,101.657 47.500 C 101.418 47.500,101.341 47.348,101.301 46.792 C 101.262 46.245,101.165 46.046,100.875 45.919 C 100.555 45.778,100.500 45.627,100.500 44.879 C 100.500 44.183,100.431 43.960,100.167 43.795 C 99.914 43.637,99.833 43.404,99.831 42.835 C 99.828 41.778,99.679 41.333,99.327 41.333 C 99.056 41.333,99.021 41.123,98.972 39.155 C 98.925 37.288,98.875 36.953,98.625 36.813 C 98.227 36.590,98.168 25.667,98.566 25.667 C 98.931 25.667,99.000 25.274,99.000 23.193 C 99.000 21.333,99.017 21.238,99.375 21.081 C 99.694 20.941,99.758 20.768,99.801 19.920 C 99.838 19.194,99.940 18.842,100.176 18.622 C 100.420 18.394,100.500 18.097,100.500 17.410 C 100.500 16.628,100.544 16.500,100.816 16.500 C 101.173 16.500,101.333 16.190,101.333 15.498 C 101.333 15.176,101.436 14.990,101.653 14.921 C 101.867 14.853,102.010 14.602,102.083 14.167 C 102.157 13.731,102.300 13.480,102.513 13.412 C 102.732 13.343,102.833 13.158,102.833 12.826 C 102.833 12.493,102.964 12.256,103.250 12.068 C 103.479 11.918,103.667 11.654,103.667 11.481 C 103.667 11.284,103.784 11.167,103.982 11.167 C 104.179 11.167,104.336 11.011,104.402 10.750 C 104.469 10.481,104.623 10.333,104.837 10.333 C 105.052 10.333,105.167 10.221,105.167 10.012 C 105.167 9.805,105.301 9.671,105.542 9.637 C 105.783 9.602,105.936 9.449,105.970 9.208 C 106.001 8.988,106.140 8.833,106.305 8.833 C 106.460 8.833,106.674 8.693,106.782 8.521 C 106.889 8.349,107.240 8.159,107.562 8.098 C 107.937 8.028,108.185 7.870,108.252 7.661 C 108.331 7.411,108.506 7.333,108.987 7.333 C 109.429 7.333,109.753 7.209,110.068 6.917 C 110.634 6.392,116.833 6.243,116.833 6.754 C 116.833 7.098,117.515 7.333,118.511 7.333 C 118.963 7.333,119.333 7.406,119.333 7.496 C 119.333 7.731,120.245 8.167,120.736 8.167 C 120.984 8.167,121.228 8.302,121.333 8.500 C 121.431 8.683,121.659 8.833,121.839 8.833 C 122.019 8.833,122.167 8.944,122.167 9.079 C 122.167 9.214,122.392 9.441,122.667 9.583 C 122.942 9.726,123.167 9.910,123.167 9.993 C 123.167 10.076,123.317 10.192,123.500 10.250 C 123.683 10.308,123.833 10.465,123.833 10.599 C 123.833 10.732,124.021 10.913,124.250 11.000 C 124.479 11.087,124.667 11.280,124.667 11.428 C 124.667 11.576,124.817 11.737,125.000 11.785 C 125.216 11.841,125.333 12.012,125.333 12.269 C 125.333 12.556,125.427 12.667,125.667 12.667 C 125.913 12.667,126.000 12.778,126.000 13.091 C 126.000 13.324,126.188 13.703,126.417 13.932 C 126.716 14.232,126.833 14.528,126.833 14.988 C 126.833 15.488,126.906 15.647,127.167 15.715 C 127.429 15.784,127.500 15.942,127.500 16.461 C 127.500 17.792,127.696 18.653,128.022 18.757 C 128.299 18.845,128.333 19.042,128.333 20.561 C 128.333 22.704,128.296 22.667,130.450 22.667 L 132.167 22.667 132.167 14.604 L 132.167 6.541 132.526 6.302 C 133.566 5.611,132.641 5.006,130.542 5.002 L 129.167 5.000 129.167 5.833 C 129.167 6.454,129.104 6.667,128.923 6.667 C 128.562 6.667,128.333 7.212,128.333 8.072 C 128.333 8.773,128.300 8.833,127.917 8.833 C 127.611 8.833,127.500 8.744,127.500 8.500 C 127.500 8.260,127.389 8.167,127.103 8.167 C 126.848 8.167,126.675 8.049,126.620 7.838 C 126.559 7.605,126.335 7.478,125.850 7.400 C 125.349 7.320,125.167 7.212,125.167 6.997 C 125.167 6.686,124.850 6.500,124.321 6.500 C 124.146 6.500,123.909 6.350,123.795 6.167 C 123.680 5.983,123.413 5.833,123.202 5.833 C 122.990 5.833,122.644 5.646,122.431 5.417 C 122.126 5.088,121.883 5.000,121.273 5.000 C 120.630 5.000,120.500 4.948,120.500 4.689 C 120.500 4.337,119.679 4.167,117.978 4.167 C 117.183 4.167,116.964 4.105,116.795 3.833 C 116.598 3.518,116.406 3.500,113.278 3.500 C 110.109 3.500,109.965 3.514,109.882 3.833 M213.542 4.275 C 213.308 4.326,213.167 4.480,213.167 4.683 C 213.167 4.863,213.035 5.059,212.875 5.118 C 212.444 5.277,212.339 5.506,212.336 6.290 C 212.334 6.815,212.247 7.051,212.000 7.205 C 211.778 7.344,211.633 7.671,211.564 8.192 C 211.489 8.762,211.377 8.993,211.147 9.053 C 210.885 9.122,210.833 9.296,210.833 10.112 C 210.833 10.964,210.786 11.108,210.458 11.252 C 210.177 11.375,210.070 11.582,210.030 12.076 C 209.996 12.493,209.858 12.818,209.655 12.961 C 209.406 13.134,209.333 13.386,209.333 14.066 C 209.333 14.843,209.285 14.969,208.917 15.136 C 208.556 15.301,208.500 15.434,208.500 16.133 C 208.500 16.786,208.421 17.009,208.083 17.302 C 207.772 17.573,207.667 17.829,207.667 18.313 C 207.667 18.821,207.595 18.980,207.333 19.048 C 207.047 19.123,207.000 19.276,207.000 20.133 C 207.000 21.058,206.970 21.138,206.583 21.235 C 206.224 21.325,206.167 21.433,206.167 22.018 C 206.167 22.497,206.068 22.778,205.829 22.973 C 205.600 23.161,205.457 23.539,205.386 24.147 C 205.307 24.826,205.207 25.064,204.974 25.125 C 204.740 25.186,204.667 25.364,204.667 25.868 C 204.667 26.345,204.566 26.611,204.308 26.821 C 204.040 27.037,203.929 27.351,203.870 28.056 C 203.805 28.840,203.739 29.000,203.479 29.000 C 203.212 29.000,203.167 29.131,203.167 29.913 C 203.167 30.703,203.110 30.862,202.750 31.099 C 202.413 31.319,202.333 31.508,202.333 32.083 C 202.333 32.635,202.264 32.813,202.025 32.875 C 201.700 32.960,201.500 33.618,201.500 34.604 C 201.500 35.056,201.434 35.167,201.167 35.167 C 200.890 35.167,200.833 35.278,200.833 35.826 C 200.833 36.307,200.721 36.598,200.417 36.902 C 200.082 37.236,200.000 37.484,200.000 38.159 C 200.000 38.882,199.954 39.000,199.675 39.000 C 199.401 39.000,199.332 39.159,199.236 40.006 C 199.153 40.740,199.038 41.057,198.811 41.179 C 198.579 41.303,198.500 41.533,198.500 42.089 C 198.500 42.645,198.436 42.833,198.246 42.833 C 197.934 42.833,197.667 43.493,197.667 44.259 C 197.667 44.650,197.561 44.896,197.333 45.039 C 197.085 45.194,197.000 45.427,197.000 45.957 C 197.000 46.469,196.932 46.667,196.756 46.667 C 196.385 46.667,196.167 47.219,196.167 48.156 C 196.167 48.873,196.119 49.000,195.851 49.000 C 195.495 49.000,195.333 49.310,195.333 49.994 C 195.333 50.321,195.233 50.487,195.000 50.548 C 194.736 50.617,194.667 50.776,194.667 51.306 C 194.667 51.875,194.610 51.985,194.292 52.030 C 194.051 52.064,193.898 52.217,193.863 52.458 C 193.829 52.699,193.695 52.833,193.488 52.833 C 193.284 52.833,193.167 52.948,193.167 53.149 C 193.167 53.346,193.011 53.503,192.750 53.568 C 192.486 53.635,192.333 53.791,192.333 53.994 C 192.333 54.252,192.195 54.324,191.625 54.365 C 191.036 54.408,190.908 54.480,190.863 54.792 C 190.825 55.063,190.698 55.167,190.405 55.167 C 190.018 55.167,190.000 55.214,190.000 56.250 L 190.000 57.333 197.982 57.333 C 206.769 57.333,206.167 57.409,206.167 56.309 C 206.167 55.369,205.929 55.167,204.827 55.167 C 204.281 55.167,203.833 55.097,203.833 55.012 C 203.833 54.591,203.270 54.333,202.350 54.333 C 201.543 54.333,201.330 54.267,201.000 53.917 C 200.785 53.688,200.476 53.500,200.314 53.500 C 200.095 53.500,200.007 53.342,199.968 52.875 C 199.930 52.416,199.817 52.206,199.542 52.085 C 199.074 51.880,198.967 50.333,199.421 50.333 C 199.787 50.333,200.000 49.633,200.000 48.425 C 200.000 47.541,200.049 47.359,200.308 47.292 C 200.616 47.211,200.827 46.471,200.831 45.458 C 200.833 45.112,200.915 45.000,201.167 45.000 C 201.449 45.000,201.500 44.889,201.500 44.270 C 201.500 43.708,201.582 43.486,201.859 43.303 C 202.134 43.119,202.235 42.848,202.295 42.130 C 202.356 41.393,202.439 41.178,202.686 41.113 C 202.941 41.047,203.000 40.874,203.000 40.194 C 203.000 39.500,203.071 39.302,203.417 39.030 C 203.646 38.850,203.833 38.582,203.833 38.434 C 203.833 38.192,204.604 38.167,211.895 38.167 L 219.958 38.167 220.041 39.031 C 220.099 39.634,220.228 39.980,220.468 40.174 C 220.700 40.362,220.829 40.691,220.864 41.185 C 220.908 41.798,220.978 41.925,221.292 41.970 C 221.636 42.019,221.667 42.111,221.667 43.084 C 221.667 43.998,221.713 44.159,222.000 44.250 C 222.253 44.330,222.334 44.503,222.336 44.970 C 222.339 45.869,222.495 46.309,222.851 46.422 C 223.098 46.501,223.167 46.683,223.167 47.255 C 223.167 47.800,223.246 48.031,223.478 48.155 C 223.704 48.276,223.820 48.592,223.902 49.318 C 223.991 50.104,224.084 50.337,224.341 50.419 C 224.634 50.512,224.667 50.681,224.667 52.095 C 224.667 53.982,224.452 54.332,223.292 54.336 C 222.300 54.339,221.861 54.485,221.744 54.851 C 221.664 55.105,221.482 55.167,220.822 55.167 L 220.000 55.167 220.000 56.250 L 220.000 57.333 248.919 57.333 L 277.839 57.333 277.794 52.875 C 277.750 48.431,277.749 48.416,277.375 48.252 C 277.154 48.155,277.000 47.941,277.000 47.731 C 277.000 47.535,277.169 47.262,277.375 47.125 C 277.735 46.887,277.750 46.781,277.750 44.480 L 277.750 42.083 275.875 42.036 L 274.000 41.989 274.000 43.558 C 274.000 44.944,273.964 45.137,273.692 45.208 C 273.371 45.292,273.167 46.191,273.167 47.523 C 273.167 47.944,273.052 48.282,272.833 48.500 C 272.589 48.744,272.500 49.056,272.500 49.667 C 272.500 50.373,272.452 50.500,272.184 50.500 C 271.856 50.500,271.667 50.807,271.667 51.338 C 271.667 51.508,271.527 51.746,271.357 51.866 C 271.187 51.985,270.995 52.252,270.929 52.458 C 270.849 52.712,270.680 52.833,270.405 52.833 C 270.182 52.833,269.860 52.973,269.689 53.144 C 269.519 53.315,269.107 53.505,268.775 53.568 C 268.431 53.632,268.096 53.821,267.996 54.007 C 267.714 54.535,254.087 54.516,253.948 53.988 C 253.899 53.797,253.703 53.601,253.512 53.552 C 253.167 53.461,253.167 53.445,253.167 43.064 L 253.167 32.667 256.238 32.667 C 259.297 32.667,259.310 32.668,259.363 33.042 C 259.398 33.283,259.551 33.436,259.792 33.470 C 259.998 33.499,260.167 33.637,260.167 33.777 C 260.167 33.917,260.310 34.069,260.486 34.115 C 260.661 34.161,260.850 34.379,260.906 34.599 C 260.970 34.854,261.127 35.000,261.337 35.000 C 261.630 35.000,261.667 35.114,261.667 36.036 C 261.667 36.932,261.723 37.121,262.078 37.426 C 262.469 37.762,262.492 37.884,262.536 39.848 L 262.583 41.917 264.417 41.917 L 266.250 41.917 266.307 41.250 C 266.483 39.208,266.129 33.792,265.814 33.710 C 265.324 33.582,265.326 24.251,265.815 24.123 C 266.088 24.052,266.141 23.838,266.203 22.562 C 266.324 20.089,265.931 19.586,263.968 19.697 C 262.565 19.776,262.506 19.850,262.503 21.530 C 262.500 22.639,262.458 22.824,262.185 22.911 C 261.777 23.040,261.672 23.467,261.669 25.012 C 261.667 26.148,261.625 26.309,261.250 26.636 C 261.021 26.835,260.833 27.073,260.833 27.166 C 260.833 27.258,260.702 27.475,260.542 27.649 C 260.381 27.823,260.090 28.157,259.895 28.391 C 259.700 28.625,259.343 28.866,259.103 28.927 C 258.825 28.996,258.667 29.150,258.667 29.351 C 258.667 29.648,258.503 29.667,255.917 29.667 L 253.167 29.667 253.167 19.250 L 253.167 8.833 253.516 8.833 C 253.724 8.833,253.900 8.699,253.952 8.500 C 254.088 7.977,267.635 7.977,267.961 8.500 C 268.103 8.726,268.350 8.833,268.732 8.833 C 269.161 8.833,269.316 8.915,269.385 9.179 C 269.435 9.369,269.631 9.565,269.821 9.615 C 270.016 9.666,270.167 9.842,270.167 10.019 C 270.167 10.216,270.284 10.333,270.481 10.333 C 270.800 10.333,270.993 10.753,270.998 11.458 C 270.999 11.719,271.100 11.833,271.327 11.833 C 271.623 11.833,271.658 11.970,271.702 13.292 C 271.746 14.621,271.783 14.765,272.125 14.915 C 272.482 15.071,272.500 15.169,272.500 16.962 L 272.500 18.844 274.375 18.797 L 276.250 18.750 276.294 11.875 L 276.337 5.000 257.411 5.000 L 238.485 5.000 238.534 6.125 L 238.583 7.250 239.315 7.302 C 239.785 7.336,240.143 7.470,240.315 7.675 C 240.499 7.895,240.896 8.029,241.583 8.103 C 242.668 8.220,243.081 8.467,243.238 9.096 C 243.303 9.353,243.459 9.500,243.670 9.500 C 243.997 9.500,244.000 9.681,244.000 31.167 C 244.000 50.451,243.972 52.833,243.746 52.833 C 243.607 52.833,243.401 53.039,243.288 53.289 C 242.921 54.107,242.567 54.333,241.656 54.333 C 240.719 54.333,240.167 54.552,240.167 54.923 C 240.167 55.390,237.703 55.262,237.637 54.792 C 237.592 54.480,237.464 54.408,236.875 54.365 C 236.302 54.324,236.167 54.252,236.167 53.990 C 236.167 53.812,236.053 53.667,235.913 53.667 C 235.774 53.667,235.574 53.479,235.470 53.250 C 235.365 53.021,235.146 52.833,234.983 52.833 C 234.761 52.833,234.674 52.677,234.635 52.208 C 234.597 51.749,234.484 51.540,234.208 51.419 C 233.905 51.286,233.833 51.120,233.833 50.555 C 233.833 50.002,233.764 49.834,233.500 49.750 C 233.242 49.668,233.167 49.498,233.167 49.000 C 233.167 48.166,232.909 47.500,232.587 47.500 C 232.398 47.500,232.333 47.312,232.333 46.756 C 232.333 46.182,232.257 45.971,232.000 45.833 C 231.812 45.733,231.667 45.484,231.667 45.265 C 231.667 44.444,231.445 43.788,231.141 43.708 C 230.902 43.646,230.833 43.468,230.833 42.916 C 230.833 42.341,230.753 42.153,230.417 41.932 C 230.057 41.696,230.000 41.535,230.000 40.757 C 230.000 40.022,229.942 39.837,229.687 39.757 C 229.451 39.682,229.355 39.447,229.292 38.798 C 229.235 38.199,229.105 37.853,228.866 37.659 C 228.634 37.471,228.504 37.142,228.469 36.649 C 228.425 36.036,228.356 35.908,228.042 35.863 C 227.700 35.815,227.667 35.720,227.667 34.806 C 227.667 33.942,227.620 33.790,227.333 33.715 C 227.066 33.645,227.000 33.488,227.000 32.916 C 227.000 32.341,226.920 32.153,226.583 31.932 C 226.232 31.702,226.167 31.530,226.167 30.839 C 226.167 30.233,226.087 29.962,225.860 29.801 C 225.667 29.664,225.513 29.274,225.444 28.750 C 225.376 28.232,225.213 27.816,225.012 27.649 C 224.819 27.490,224.668 27.121,224.637 26.733 C 224.597 26.249,224.488 26.041,224.208 25.919 C 223.895 25.781,223.833 25.624,223.833 24.960 C 223.833 24.389,223.740 24.073,223.500 23.833 C 223.317 23.650,223.167 23.281,223.167 23.014 C 223.167 22.310,223.008 22.000,222.649 22.000 C 222.378 22.000,222.333 21.872,222.333 21.095 C 222.333 20.230,222.066 19.667,221.655 19.667 C 221.570 19.667,221.500 19.347,221.500 18.957 C 221.500 18.427,221.415 18.194,221.167 18.039 C 220.915 17.882,220.833 17.650,220.833 17.096 C 220.833 16.146,220.705 15.833,220.316 15.833 C 220.048 15.833,220.000 15.707,220.000 15.000 C 220.000 14.399,219.910 14.077,219.679 13.845 C 219.502 13.669,219.306 13.181,219.243 12.762 C 219.157 12.189,219.056 12.000,218.835 12.000 C 218.598 12.000,218.526 11.817,218.463 11.051 C 218.402 10.319,218.302 10.048,218.025 9.864 C 217.749 9.681,217.667 9.458,217.667 8.896 C 217.667 8.278,217.616 8.167,217.333 8.167 C 217.066 8.167,217.000 8.056,217.000 7.604 C 217.000 6.618,216.800 5.960,216.475 5.875 C 216.243 5.814,216.167 5.637,216.167 5.157 C 216.167 4.806,216.098 4.477,216.014 4.425 C 215.793 4.289,213.982 4.179,213.542 4.275 M1.167 6.165 L 1.167 7.333 1.932 7.333 C 2.491 7.333,2.771 7.422,2.973 7.665 C 3.165 7.894,3.553 8.030,4.237 8.108 C 5.292 8.227,5.833 8.548,5.833 9.053 C 5.833 9.224,5.983 9.404,6.167 9.452 C 6.693 9.589,6.693 52.377,6.167 52.705 C 5.983 52.820,5.833 53.033,5.833 53.180 C 5.833 53.327,5.646 53.532,5.417 53.636 C 5.188 53.741,5.000 53.940,5.000 54.080 C 5.000 54.279,4.784 54.333,3.996 54.333 C 3.088 54.333,2.975 54.373,2.803 54.750 C 2.643 55.101,2.500 55.167,1.890 55.167 L 1.167 55.167 1.167 56.250 L 1.167 57.333 9.149 57.333 C 18.018 57.333,17.333 57.429,17.333 56.186 C 17.333 55.343,17.097 55.167,15.967 55.167 C 15.435 55.167,15.000 55.097,15.000 55.012 C 15.000 54.564,14.438 54.333,13.348 54.333 C 12.307 54.333,12.206 54.301,12.030 53.917 C 11.919 53.672,11.701 53.500,11.504 53.500 C 11.248 53.500,11.166 53.390,11.164 53.042 C 11.161 52.501,11.023 52.265,10.625 52.118 C 10.349 52.016,10.335 51.001,10.360 33.714 C 10.375 23.650,10.417 15.660,10.454 15.958 C 10.504 16.360,10.605 16.500,10.844 16.500 C 11.115 16.500,11.167 16.619,11.167 17.239 C 11.167 18.158,11.412 18.833,11.746 18.833 C 11.934 18.833,12.000 19.018,12.000 19.543 C 12.000 20.073,12.085 20.306,12.333 20.461 C 12.541 20.591,12.667 20.850,12.667 21.147 C 12.667 22.100,12.861 22.667,13.188 22.667 C 13.452 22.667,13.500 22.796,13.500 23.508 C 13.500 24.191,13.578 24.422,13.917 24.735 C 14.232 25.027,14.333 25.290,14.333 25.811 C 14.333 26.389,14.387 26.500,14.667 26.500 C 14.950 26.500,15.000 26.611,15.000 27.239 C 15.000 28.158,15.245 28.833,15.579 28.833 C 15.769 28.833,15.833 29.022,15.833 29.577 C 15.833 30.142,15.911 30.363,16.155 30.494 C 16.386 30.618,16.509 30.927,16.593 31.604 C 16.683 32.321,16.784 32.562,17.022 32.624 C 17.265 32.688,17.333 32.862,17.333 33.417 C 17.333 33.992,17.413 34.181,17.750 34.401 C 18.104 34.633,18.167 34.802,18.167 35.519 C 18.167 36.205,18.226 36.380,18.478 36.446 C 18.720 36.509,18.811 36.739,18.887 37.472 C 18.956 38.142,19.083 38.497,19.325 38.693 C 19.566 38.888,19.667 39.166,19.667 39.634 C 19.667 40.202,19.726 40.312,20.083 40.402 C 20.471 40.499,20.500 40.578,20.500 41.519 C 20.500 42.391,20.546 42.543,20.833 42.618 C 21.095 42.687,21.167 42.846,21.167 43.354 C 21.167 43.838,21.272 44.094,21.583 44.364 C 21.922 44.659,22.000 44.880,22.000 45.546 C 22.000 46.210,22.060 46.380,22.317 46.447 C 22.546 46.507,22.665 46.743,22.749 47.302 C 22.820 47.773,22.989 48.161,23.182 48.296 C 23.422 48.464,23.500 48.722,23.500 49.346 C 23.500 50.067,23.554 50.198,23.917 50.364 C 24.278 50.528,24.333 50.661,24.333 51.360 C 24.333 51.944,24.425 52.259,24.667 52.500 C 24.850 52.683,25.000 53.026,25.000 53.261 C 25.000 53.820,25.282 54.333,25.589 54.333 C 25.771 54.333,25.833 54.544,25.833 55.153 C 25.833 56.182,25.954 56.500,26.342 56.500 C 26.589 56.500,26.658 56.653,26.699 57.292 L 26.750 58.083 28.208 58.131 L 29.667 58.180 29.667 57.756 C 29.667 57.454,29.756 57.333,29.979 57.333 C 30.324 57.333,30.500 56.762,30.500 55.646 C 30.500 55.111,30.557 55.000,30.833 55.000 C 31.116 55.000,31.167 54.889,31.167 54.270 C 31.167 53.708,31.249 53.486,31.525 53.303 C 31.801 53.119,31.902 52.848,31.961 52.130 C 32.020 51.425,32.110 51.177,32.328 51.120 C 32.632 51.040,32.833 50.355,32.833 49.396 C 32.833 48.944,32.899 48.833,33.167 48.833 C 33.449 48.833,33.500 48.722,33.500 48.104 C 33.500 47.542,33.582 47.319,33.859 47.136 C 34.134 46.953,34.235 46.682,34.295 45.963 C 34.356 45.227,34.439 45.011,34.686 44.947 C 34.950 44.878,35.000 44.703,35.000 43.845 C 35.000 42.910,35.035 42.812,35.417 42.667 C 35.784 42.527,35.833 42.410,35.833 41.678 C 35.833 41.015,35.917 40.765,36.250 40.432 C 36.538 40.144,36.667 39.832,36.667 39.424 C 36.667 39.030,36.744 38.833,36.899 38.833 C 37.220 38.833,37.333 38.459,37.333 37.403 C 37.333 36.628,37.378 36.500,37.649 36.500 C 38.032 36.500,38.167 36.188,38.167 35.297 C 38.167 34.791,38.271 34.525,38.583 34.235 C 38.866 33.973,39.000 33.672,39.000 33.298 C 39.000 32.927,39.109 32.679,39.333 32.539 C 39.606 32.368,39.667 32.150,39.667 31.332 C 39.667 30.465,39.708 30.333,39.981 30.333 C 40.333 30.333,40.494 29.906,40.498 28.964 C 40.499 28.517,40.593 28.295,40.833 28.167 C 41.090 28.029,41.167 27.818,41.167 27.244 C 41.167 26.702,41.233 26.500,41.411 26.500 C 41.782 26.500,42.000 25.948,42.000 25.011 C 42.000 24.297,42.048 24.167,42.313 24.167 C 42.639 24.167,42.833 23.600,42.833 22.652 C 42.833 22.349,42.953 22.114,43.167 22.000 C 43.413 21.868,43.500 21.651,43.500 21.168 C 43.500 20.694,43.614 20.401,43.917 20.098 C 44.251 19.764,44.333 19.516,44.333 18.841 C 44.333 18.130,44.382 18.000,44.646 18.000 C 44.980 18.000,45.167 17.431,45.167 16.414 C 45.167 15.943,45.388 15.667,45.764 15.667 C 46.071 15.667,45.809 49.768,45.500 49.961 C 45.203 50.147,45.167 50.350,45.167 51.817 C 45.167 53.435,45.159 53.466,44.750 53.568 C 44.481 53.636,44.333 53.790,44.333 54.003 C 44.333 54.299,44.219 54.333,43.242 54.333 C 42.301 54.333,42.094 54.390,41.735 54.750 C 41.403 55.082,41.151 55.167,40.492 55.167 L 39.667 55.167 39.667 56.250 L 39.667 57.333 49.982 57.333 C 61.450 57.333,60.500 57.437,60.500 56.186 C 60.500 55.349,60.263 55.167,59.173 55.167 C 58.371 55.167,58.223 55.116,58.081 54.792 C 57.941 54.473,57.755 54.404,56.833 54.333 C 55.671 54.244,55.000 53.859,55.000 53.281 C 55.000 53.109,54.850 52.930,54.667 52.882 C 54.208 52.762,54.131 9.500,54.589 9.500 C 54.729 9.500,54.890 9.369,54.947 9.208 C 55.153 8.624,55.719 8.167,56.237 8.166 C 57.043 8.164,58.000 7.844,58.000 7.575 C 58.000 7.393,58.228 7.333,58.928 7.333 C 60.270 7.333,60.500 7.162,60.500 6.167 C 60.500 4.960,60.763 5.000,52.833 5.000 C 44.781 5.000,45.167 4.933,45.167 6.328 C 45.167 7.220,45.132 7.315,44.792 7.363 C 44.462 7.410,44.411 7.528,44.366 8.333 C 44.327 9.052,44.228 9.333,43.908 9.632 C 43.629 9.893,43.500 10.194,43.500 10.584 C 43.500 10.984,43.400 11.208,43.167 11.333 C 42.893 11.480,42.833 11.682,42.833 12.466 C 42.833 13.296,42.784 13.442,42.458 13.585 C 42.149 13.721,42.074 13.904,42.033 14.622 C 41.997 15.241,41.894 15.556,41.674 15.710 C 41.488 15.840,41.318 16.238,41.247 16.713 C 41.177 17.180,41.042 17.500,40.916 17.500 C 40.620 17.500,40.500 17.888,40.500 18.847 C 40.500 19.456,40.437 19.667,40.256 19.667 C 39.907 19.667,39.667 20.204,39.667 20.988 C 39.667 21.483,39.578 21.719,39.333 21.872 C 39.076 22.033,39.000 22.261,39.000 22.873 C 39.000 23.473,38.938 23.667,38.746 23.667 C 38.423 23.667,38.167 24.334,38.167 25.178 C 38.167 25.654,38.097 25.833,37.913 25.833 C 37.601 25.833,37.333 26.493,37.333 27.259 C 37.333 27.650,37.228 27.896,37.000 28.039 C 36.743 28.199,36.667 28.427,36.667 29.040 C 36.667 29.640,36.605 29.833,36.413 29.833 C 36.092 29.833,35.833 30.499,35.833 31.325 C 35.833 31.811,35.758 31.981,35.515 32.044 C 35.260 32.111,35.174 32.342,35.081 33.216 C 34.988 34.086,34.901 34.320,34.649 34.386 C 34.397 34.452,34.333 34.623,34.333 35.234 C 34.333 35.809,34.270 36.000,34.079 36.000 C 33.758 36.000,33.500 36.666,33.500 37.491 C 33.500 37.988,33.427 38.147,33.167 38.215 C 32.876 38.291,32.833 38.442,32.833 39.389 C 32.833 40.390,32.803 40.481,32.458 40.530 C 32.140 40.575,32.076 40.700,32.033 41.358 C 31.996 41.937,31.908 42.152,31.684 42.211 C 31.377 42.291,31.167 42.959,31.167 43.854 C 31.167 44.712,30.561 44.491,30.425 43.583 C 30.337 42.991,30.245 42.833,29.990 42.833 C 29.713 42.833,29.667 42.713,29.667 41.989 C 29.667 41.052,29.448 40.500,29.077 40.500 C 28.901 40.500,28.833 40.302,28.833 39.790 C 28.833 39.261,28.749 39.027,28.500 38.872 C 28.264 38.725,28.166 38.482,28.164 38.040 C 28.161 37.094,28.000 36.667,27.647 36.667 C 27.382 36.667,27.333 36.538,27.333 35.833 C 27.333 35.245,27.243 34.909,27.025 34.692 C 26.856 34.523,26.665 34.059,26.602 33.661 C 26.533 33.232,26.354 32.846,26.160 32.710 C 25.920 32.542,25.833 32.287,25.833 31.754 C 25.833 30.813,25.704 30.500,25.316 30.500 C 25.049 30.500,25.000 30.373,25.000 29.680 C 25.000 28.705,24.880 28.333,24.566 28.333 C 24.424 28.333,24.332 28.155,24.331 27.875 C 24.327 27.090,24.146 26.667,23.814 26.667 C 23.548 26.667,23.500 26.538,23.500 25.822 C 23.500 24.885,23.282 24.333,22.911 24.333 C 22.733 24.333,22.667 24.132,22.667 23.589 C 22.667 23.016,22.590 22.804,22.333 22.667 C 22.078 22.530,22.000 22.318,22.000 21.758 C 22.000 20.813,21.871 20.500,21.482 20.500 C 21.208 20.500,21.167 20.370,21.167 19.501 C 21.167 18.683,21.106 18.465,20.833 18.295 C 20.609 18.155,20.500 17.906,20.500 17.535 C 20.500 17.161,20.366 16.860,20.083 16.598 C 19.771 16.308,19.667 16.043,19.667 15.536 C 19.667 14.646,19.532 14.333,19.149 14.333 C 18.878 14.333,18.833 14.205,18.833 13.423 C 18.833 12.754,18.751 12.434,18.524 12.215 C 18.353 12.051,18.168 11.618,18.111 11.254 C 18.054 10.886,17.862 10.478,17.679 10.337 C 17.435 10.150,17.336 9.844,17.299 9.167 C 17.256 8.361,17.205 8.244,16.875 8.197 C 16.539 8.149,16.500 8.050,16.500 7.245 C 16.500 6.580,16.418 6.269,16.185 6.048 C 16.011 5.884,15.841 5.600,15.807 5.417 C 15.747 5.090,15.596 5.082,8.456 5.040 L 1.167 4.996 1.167 6.165 M64.333 6.167 L 64.333 7.333 65.167 7.333 C 65.767 7.333,66.090 7.423,66.321 7.655 C 66.503 7.837,66.991 8.021,67.446 8.080 C 68.768 8.252,69.000 8.328,69.000 8.587 C 69.000 8.722,69.080 8.833,69.179 8.833 C 69.850 8.833,69.833 8.275,69.833 31.174 L 69.833 53.039 69.186 53.686 C 68.613 54.260,68.447 54.334,67.728 54.336 C 66.634 54.339,66.197 54.475,66.078 54.851 C 65.997 55.105,65.816 55.167,65.155 55.167 L 64.333 55.167 64.333 56.250 L 64.333 57.333 74.333 57.333 L 84.333 57.333 84.333 56.250 L 84.333 55.167 83.595 55.167 C 83.002 55.167,82.835 55.101,82.750 54.834 C 82.628 54.450,82.300 54.353,80.931 54.293 C 79.975 54.251,79.939 54.233,79.758 53.693 C 79.656 53.387,79.443 53.065,79.286 52.977 C 78.868 52.743,78.840 9.597,79.258 9.437 C 79.399 9.382,79.620 9.086,79.749 8.777 C 79.972 8.243,80.034 8.212,81.036 8.118 C 82.296 8.000,82.667 7.875,82.667 7.566 C 82.667 7.398,82.899 7.333,83.500 7.333 L 84.333 7.333 84.333 6.167 L 84.333 5.000 74.333 5.000 L 64.333 5.000 64.333 6.167 M138.446 5.110 C 138.253 5.303,138.323 6.923,138.533 7.133 C 138.643 7.243,139.163 7.333,139.689 7.333 C 140.476 7.333,140.662 7.388,140.743 7.646 C 140.841 7.955,141.547 8.161,142.522 8.165 C 142.820 8.166,142.989 8.274,143.048 8.500 C 143.100 8.699,143.276 8.833,143.484 8.833 C 143.779 8.833,143.833 8.935,143.833 9.489 C 143.833 9.998,143.908 10.168,144.167 10.250 C 144.693 10.417,144.693 52.077,144.167 52.215 C 143.911 52.282,143.833 52.442,143.833 52.905 C 143.833 53.395,143.755 53.538,143.417 53.667 C 143.188 53.754,143.000 53.939,143.000 54.079 C 143.000 54.281,142.777 54.333,141.920 54.333 C 140.912 54.333,140.833 54.361,140.737 54.743 C 140.642 55.119,140.546 55.156,139.525 55.201 L 138.417 55.250 138.417 56.250 L 138.417 57.250 148.792 57.293 L 159.167 57.336 159.167 56.251 L 159.167 55.167 158.171 55.167 C 157.292 55.167,157.142 55.118,156.901 54.750 C 156.658 54.379,156.514 54.333,155.584 54.333 C 154.679 54.333,154.527 54.289,154.452 54.000 C 154.404 53.817,154.250 53.667,154.109 53.667 C 153.935 53.667,153.818 53.431,153.742 52.922 C 153.664 52.400,153.536 52.148,153.315 52.078 C 153.011 51.981,153.000 51.646,153.000 42.322 L 153.000 32.667 163.833 32.667 L 174.667 32.667 174.667 41.976 C 174.667 52.222,174.616 53.334,174.141 53.459 C 173.950 53.508,173.833 53.690,173.833 53.936 C 173.833 54.313,173.780 54.333,172.761 54.333 C 171.535 54.333,170.833 54.544,170.833 54.913 C 170.833 55.106,170.636 55.167,170.000 55.167 L 169.167 55.167 169.167 56.250 L 169.167 57.333 179.167 57.333 L 189.167 57.333 189.167 56.250 L 189.167 55.167 188.401 55.167 C 187.788 55.167,187.619 55.103,187.552 54.849 C 187.450 54.459,187.037 54.339,185.790 54.336 L 184.831 54.333 184.569 53.680 C 184.425 53.320,184.201 52.985,184.070 52.935 C 183.695 52.791,183.716 9.581,184.091 9.437 C 184.232 9.382,184.459 9.074,184.593 8.752 C 184.818 8.214,184.894 8.167,185.544 8.166 C 186.520 8.164,187.500 7.869,187.500 7.575 C 187.500 7.396,187.716 7.333,188.333 7.333 L 189.167 7.333 189.167 6.167 L 189.167 5.000 179.167 5.000 L 169.167 5.000 169.167 6.167 L 169.167 7.333 170.066 7.333 C 170.693 7.333,170.992 7.406,171.056 7.573 C 171.171 7.872,172.191 8.165,173.125 8.166 C 173.722 8.167,173.833 8.219,173.833 8.500 C 173.833 8.683,173.938 8.833,174.066 8.833 C 174.539 8.833,174.582 9.631,174.632 19.542 L 174.683 29.667 163.842 29.667 L 153.000 29.667 153.000 20.019 C 153.000 10.697,153.011 10.369,153.315 10.290 C 153.532 10.233,153.667 9.994,153.747 9.520 C 153.822 9.071,153.949 8.833,154.114 8.833 C 154.252 8.833,154.404 8.683,154.452 8.500 C 154.516 8.253,154.679 8.167,155.082 8.167 C 156.039 8.167,156.707 7.964,156.790 7.649 C 156.854 7.403,157.073 7.339,157.976 7.299 L 159.083 7.250 159.083 6.167 L 159.083 5.083 148.821 5.040 C 143.176 5.017,138.508 5.048,138.446 5.110 M282.500 6.165 L 282.500 7.333 283.647 7.333 C 284.623 7.333,284.807 7.379,284.875 7.641 C 284.960 7.967,285.618 8.167,286.604 8.167 C 287.056 8.167,287.167 8.233,287.167 8.500 C 287.167 8.722,287.278 8.833,287.500 8.833 C 287.756 8.833,287.833 8.944,287.833 9.312 C 287.833 10.219,288.043 10.876,288.359 10.958 C 288.656 11.036,288.667 11.728,288.667 31.118 L 288.667 51.197 288.312 51.484 C 288.061 51.687,287.933 52.023,287.874 52.631 C 287.812 53.281,287.715 53.515,287.479 53.590 C 287.307 53.644,287.167 53.834,287.167 54.011 C 287.167 54.296,287.043 54.333,286.107 54.333 C 285.171 54.333,285.010 54.382,284.734 54.750 C 284.463 55.110,284.290 55.167,283.460 55.167 L 282.500 55.167 282.500 56.251 L 282.500 57.335 302.458 57.292 L 322.417 57.250 322.467 56.473 C 322.506 55.863,322.444 55.627,322.177 55.379 C 321.847 55.071,321.836 54.864,321.794 48.156 L 321.750 41.250 320.250 41.250 C 318.831 41.250,318.747 41.270,318.698 41.617 C 318.669 41.819,318.500 42.030,318.323 42.087 C 318.025 42.181,318.000 42.359,318.000 44.367 C 318.000 46.476,317.987 46.557,317.583 46.931 C 317.230 47.259,317.167 47.466,317.167 48.295 C 317.167 49.131,317.106 49.326,316.750 49.636 C 316.480 49.870,316.333 50.173,316.333 50.493 C 316.333 50.818,316.219 51.050,316.000 51.167 C 315.817 51.265,315.667 51.487,315.667 51.661 C 315.667 51.862,315.530 51.996,315.292 52.030 C 315.051 52.064,314.898 52.217,314.863 52.458 C 314.830 52.697,314.695 52.833,314.494 52.833 C 314.321 52.833,314.098 52.983,314.000 53.167 C 313.877 53.397,313.651 53.500,313.268 53.500 C 312.909 53.500,312.558 53.646,312.266 53.917 L 311.816 54.333 305.247 54.333 C 298.849 54.333,298.674 54.325,298.500 54.000 C 298.402 53.817,298.212 53.667,298.077 53.667 C 297.935 53.667,297.833 53.510,297.833 53.290 C 297.833 53.083,297.683 52.820,297.500 52.705 C 297.169 52.499,297.167 52.317,297.167 31.171 C 297.167 10.016,297.169 9.844,297.500 9.667 C 297.683 9.569,297.833 9.346,297.833 9.172 C 297.833 8.998,297.983 8.808,298.167 8.750 C 298.350 8.692,298.500 8.537,298.500 8.405 C 298.500 8.248,298.683 8.166,299.042 8.165 C 300.167 8.161,300.833 7.971,300.833 7.652 C 300.833 7.393,300.999 7.341,301.953 7.299 C 303.227 7.243,303.564 6.801,303.226 5.625 L 303.071 5.083 292.785 5.040 L 282.500 4.997 282.500 6.165 M212.333 18.337 C 212.333 19.246,212.373 19.358,212.750 19.530 C 213.111 19.695,213.167 19.828,213.167 20.527 C 213.167 21.111,213.259 21.425,213.500 21.667 C 213.683 21.850,213.833 22.219,213.833 22.486 C 213.833 23.190,213.992 23.500,214.351 23.500 C 214.626 23.500,214.667 23.630,214.667 24.504 C 214.667 25.412,214.706 25.525,215.083 25.697 C 215.452 25.865,215.500 25.989,215.500 26.775 C 215.500 27.483,215.568 27.706,215.833 27.872 C 216.053 28.009,216.167 28.261,216.167 28.610 C 216.167 29.356,216.319 29.667,216.684 29.667 C 216.959 29.667,217.000 29.797,217.000 30.661 C 217.000 31.459,217.061 31.688,217.309 31.820 C 217.526 31.936,217.650 32.251,217.721 32.868 C 217.791 33.462,217.935 33.840,218.162 34.027 C 218.348 34.179,218.500 34.460,218.500 34.652 C 218.500 34.999,218.483 35.000,211.917 35.000 L 205.333 35.000 205.333 34.167 C 205.333 33.531,205.394 33.333,205.587 33.333 C 205.908 33.333,206.167 32.668,206.167 31.842 C 206.167 31.363,206.243 31.186,206.475 31.125 C 206.779 31.045,207.000 30.389,207.000 29.564 C 207.000 29.347,207.150 29.076,207.333 28.961 C 207.581 28.807,207.667 28.573,207.667 28.054 C 207.667 27.515,207.739 27.333,207.982 27.256 C 208.348 27.139,208.495 26.700,208.498 25.708 C 208.500 25.112,208.553 25.000,208.833 25.000 C 209.122 25.000,209.167 24.889,209.167 24.167 C 209.167 23.531,209.227 23.333,209.421 23.333 C 209.744 23.333,210.000 22.666,210.000 21.822 C 210.000 21.346,210.069 21.167,210.254 21.167 C 210.566 21.167,210.833 20.507,210.833 19.741 C 210.833 19.350,210.939 19.104,211.167 18.961 C 211.415 18.806,211.500 18.573,211.500 18.043 C 211.500 17.397,211.537 17.333,211.917 17.333 C 212.315 17.333,212.333 17.378,212.333 18.337 " stroke="none" fill="#043cfc" fill-rule="evenodd"></path><path id="path3" d="M332.806 1.343 C 332.603 1.458,332.542 1.680,332.581 2.167 C 332.611 2.536,332.568 2.792,332.484 2.740 C 332.401 2.689,332.333 2.756,332.333 2.889 C 332.333 3.022,332.240 3.167,332.125 3.211 C 331.733 3.360,331.951 6.052,332.347 5.948 C 332.583 5.886,332.667 5.951,332.667 6.198 C 332.667 6.391,332.807 6.568,333.000 6.618 C 333.184 6.667,333.333 6.846,333.333 7.019 C 333.333 7.192,333.436 7.333,333.562 7.333 C 333.688 7.333,334.188 7.742,334.674 8.242 C 335.160 8.742,335.619 9.113,335.695 9.066 C 335.771 9.019,335.833 9.097,335.833 9.240 C 335.833 9.383,335.908 9.500,336.000 9.500 C 336.092 9.500,336.168 9.631,336.169 9.792 C 336.171 10.022,336.202 10.035,336.317 9.854 C 336.397 9.727,336.542 9.673,336.640 9.733 C 336.983 9.945,337.167 9.170,337.167 7.511 L 337.167 5.833 344.125 5.803 C 347.952 5.787,350.708 5.750,350.250 5.721 C 348.364 5.602,347.962 5.498,348.052 5.154 C 348.117 4.903,348.048 4.833,347.734 4.833 C 347.311 4.833,347.189 4.586,347.542 4.444 C 347.669 4.392,347.678 4.355,347.564 4.346 C 346.641 4.281,344.563 1.500,345.437 1.500 C 345.563 1.500,345.667 1.423,345.667 1.330 C 345.667 1.108,333.197 1.120,332.806 1.343 M365.296 37.456 C 366.407 37.534,366.276 37.833,365.131 37.833 C 364.285 37.833,364.284 37.834,364.641 38.145 C 364.839 38.316,365.000 38.561,365.000 38.689 C 365.000 38.817,365.458 39.371,366.017 39.919 C 366.576 40.468,367.141 41.123,367.271 41.375 C 367.402 41.627,367.642 41.833,367.806 41.833 C 368.647 41.833,368.755 42.323,367.917 42.340 C 366.340 42.372,367.664 42.643,369.458 42.655 C 370.700 42.663,371.170 42.724,371.179 42.875 C 371.186 42.990,371.229 43.233,371.275 43.417 C 371.320 43.600,371.356 43.900,371.355 44.083 C 371.353 44.412,371.356 44.412,371.593 44.093 C 371.864 43.728,371.880 43.794,371.868 45.292 C 371.865 45.681,371.940 46.000,372.035 46.000 C 372.137 46.000,372.121 46.104,371.997 46.254 C 371.821 46.466,371.831 46.490,372.062 46.402 C 372.214 46.344,372.437 46.379,372.559 46.480 C 372.681 46.581,372.834 46.610,372.899 46.545 C 372.964 46.480,372.970 46.550,372.913 46.700 C 372.776 47.057,373.111 47.678,373.384 47.573 C 373.555 47.507,376.322 50.176,379.786 53.750 C 380.053 54.025,380.641 54.597,381.094 55.021 C 382.154 56.014,383.405 57.370,383.459 57.583 C 383.481 57.675,383.575 57.750,383.667 57.750 C 383.758 57.750,383.815 57.825,383.792 57.917 C 383.769 58.008,383.701 58.067,383.641 58.047 C 383.580 58.027,383.556 58.139,383.586 58.297 C 383.616 58.454,383.647 58.640,383.654 58.708 C 383.661 58.777,383.737 58.833,383.824 58.833 C 383.910 58.833,383.952 58.683,383.917 58.500 C 383.881 58.317,383.923 58.167,384.010 58.167 C 384.096 58.167,384.167 58.275,384.167 58.407 C 384.167 58.539,384.229 58.686,384.306 58.733 C 384.383 58.781,384.432 58.598,384.416 58.328 C 384.393 57.937,384.432 57.875,384.608 58.021 C 384.730 58.122,384.781 58.283,384.722 58.378 C 384.661 58.477,384.695 58.502,384.801 58.437 C 384.925 58.360,384.937 58.189,384.838 57.928 C 384.755 57.711,384.717 57.505,384.752 57.470 C 385.086 57.136,384.848 55.035,384.500 55.250 C 384.407 55.307,384.279 55.218,384.216 55.052 C 384.075 54.680,383.745 54.333,383.530 54.333 C 383.354 54.333,383.094 53.837,383.147 53.605 C 383.165 53.525,383.065 53.503,382.923 53.558 C 382.673 53.654,382.594 53.491,382.659 53.019 C 382.680 52.874,382.596 52.825,382.434 52.887 C 382.144 52.998,381.667 52.598,381.667 52.243 C 381.667 52.105,381.565 52.049,381.417 52.106 C 381.279 52.159,381.167 52.135,381.167 52.052 C 381.167 51.844,379.896 50.500,379.699 50.500 C 379.611 50.500,379.498 50.344,379.448 50.154 C 379.399 49.964,379.203 49.768,379.012 49.718 C 378.822 49.668,378.667 49.529,378.667 49.408 C 378.667 49.288,378.517 49.142,378.333 49.083 C 378.031 48.987,377.926 48.802,377.980 48.458 C 377.991 48.390,377.858 48.333,377.684 48.333 C 377.253 48.333,377.194 48.098,377.248 46.612 C 377.285 45.595,377.242 45.299,377.038 45.185 C 376.888 45.101,376.825 44.929,376.886 44.771 C 376.952 44.597,376.902 44.500,376.745 44.500 C 376.561 44.500,376.500 44.283,376.500 43.625 L 376.500 42.750 384.375 42.760 C 388.706 42.766,390.619 42.746,388.625 42.715 C 386.404 42.682,385.000 42.597,385.000 42.497 C 385.000 42.407,384.869 42.331,384.708 42.328 C 384.444 42.323,384.447 42.299,384.740 42.078 C 385.022 41.865,385.028 41.833,384.782 41.833 C 384.627 41.833,384.500 41.758,384.500 41.667 C 384.500 41.575,384.331 41.499,384.125 41.497 C 383.874 41.496,383.819 41.451,383.960 41.362 C 384.107 41.268,383.824 40.894,383.002 40.097 C 382.360 39.475,381.880 38.893,381.934 38.805 C 381.989 38.716,381.857 38.597,381.642 38.540 L 381.250 38.435 381.635 38.343 C 382.191 38.209,382.101 37.932,381.465 37.820 C 380.149 37.589,381.800 37.498,388.083 37.457 C 391.750 37.432,387.925 37.409,379.583 37.404 C 371.242 37.399,364.812 37.423,365.296 37.456 " stroke="none" fill="#7c84c4" fill-rule="evenodd"></path><path id="path4" d="M345.667 1.333 C 345.667 1.425,345.563 1.500,345.437 1.500 C 344.570 1.500,346.318 3.890,347.553 4.393 C 347.697 4.452,347.694 4.477,347.542 4.487 C 347.152 4.511,347.331 4.833,347.734 4.833 C 348.048 4.833,348.117 4.903,348.052 5.154 C 347.916 5.672,348.991 5.751,356.083 5.744 C 363.386 5.737,365.156 5.630,365.093 5.200 C 365.071 5.048,364.872 4.874,364.651 4.812 C 364.431 4.750,364.313 4.692,364.390 4.683 C 364.467 4.674,364.117 4.235,363.612 3.708 C 363.107 3.181,362.504 2.544,362.272 2.292 C 362.039 2.040,361.771 1.833,361.675 1.833 C 361.579 1.833,361.500 1.766,361.500 1.683 C 361.500 1.246,360.205 1.167,353.058 1.167 C 348.242 1.167,345.667 1.225,345.667 1.333 M395.668 36.167 C 395.648 36.638,395.617 36.686,395.509 36.417 C 395.397 36.135,395.345 36.194,395.181 36.792 L 394.987 37.500 388.087 37.500 C 383.985 37.500,381.147 37.563,381.090 37.656 C 381.037 37.742,381.239 37.835,381.539 37.864 C 382.156 37.924,382.213 38.203,381.635 38.343 L 381.250 38.435 381.642 38.540 C 381.857 38.597,381.989 38.716,381.934 38.805 C 381.880 38.893,382.360 39.475,383.002 40.097 C 383.824 40.894,384.107 41.268,383.960 41.362 C 383.819 41.451,383.874 41.496,384.125 41.497 C 384.331 41.499,384.500 41.575,384.500 41.667 C 384.500 41.758,384.627 41.833,384.782 41.833 C 385.028 41.833,385.022 41.865,384.740 42.078 C 384.461 42.289,384.455 42.323,384.694 42.328 C 384.847 42.331,384.997 42.406,385.028 42.495 C 385.062 42.595,387.527 42.666,391.500 42.682 L 397.917 42.707 397.970 42.353 C 398.002 42.143,398.154 41.992,398.345 41.979 C 398.812 41.949,398.891 41.928,399.151 41.763 C 399.323 41.655,399.353 41.677,399.263 41.849 C 399.197 41.978,399.263 41.934,399.411 41.751 C 399.646 41.460,399.765 39.679,399.534 39.911 C 399.458 39.987,399.000 39.586,399.000 39.443 C 399.000 39.281,398.224 38.396,397.064 37.236 C 396.411 36.583,395.836 35.945,395.785 35.816 C 395.735 35.688,395.682 35.846,395.668 36.167 " stroke="none" fill="#6599c4" fill-rule="evenodd"></path></g></svg>